<svg width="64" height="64" viewBox="0 0 64 64" fill="none" xmlns="http://www.w3.org/2000/svg">
<path d="M53.2001 10.7999C64.9001 22.4999 64.9001 41.4999 53.2001 53.1999C47.3001 59.0999 37.8 59.0999 32 53.1999C26.2 47.2999 26.1 37.8999 32 31.9999C37.9 26.0999 37.9 16.5999 32 10.7999C26.1 4.9999 16.6 4.8999 10.8 10.7999C22.5 -0.900098 41.5001 -0.900098 53.2001 10.7999Z" fill="#F5F5F5"/>
<path d="M10.7999 53.2C-0.900098 41.5 -0.900098 22.5 10.7999 10.8C16.6999 4.9 26.1999 4.9 31.9999 10.8C37.8999 16.7 37.8999 26.2 31.9999 32C26.0999 37.8 26.0999 47.4 31.9999 53.2C37.8999 59 47.3999 59.1 53.1999 53.2C41.4999 64.9 22.4999 64.9 10.7999 53.2" fill="#3E4347"/>
<path d="M42.6 48.2C45.6928 48.2 48.2 45.6928 48.2 42.6C48.2 39.5072 45.6928 37 42.6 37C39.5072 37 37 39.5072 37 42.6C37 45.6928 39.5072 48.2 42.6 48.2Z" fill="#3E4347"/>
<path d="M21.4 27C24.4928 27 27 24.4928 27 21.4C27 18.3073 24.4928 15.8 21.4 15.8C18.3073 15.8 15.8 18.3073 15.8 21.4C15.8 24.4928 18.3073 27 21.4 27Z" fill="#F5F5F5"/>
</svg>
