<svg width="512" height="512" viewBox="0 0 512 512" fill="none" xmlns="http://www.w3.org/2000/svg">
<g clip-path="url(#clip0_130_466)">
<path d="M109.46 244.04L244.04 109.48L199.92 65.3602L138.24 127.04C137.505 127.777 136.631 128.362 135.669 128.761C134.707 129.16 133.676 129.365 132.635 129.365C131.594 129.365 130.563 129.16 129.601 128.761C128.639 128.362 127.766 127.777 127.03 127.04L115.82 115.83C112.72 112.73 112.72 107.71 115.82 104.62L177.5 42.9402L143.86 9.29023C131.47 -3.09977 111.39 -3.09977 99.0002 9.29023L9.29018 99.0002C-3.08982 111.39 -3.09982 131.47 9.29018 143.86L109.46 244.04ZM497.93 127.24C516.69 108.48 516.68 78.0702 497.93 59.3102L452.68 14.0602C433.92 -4.69977 403.5 -4.69977 384.73 14.0602L338.71 60.0702L451.91 173.27L497.93 127.24ZM316.08 82.7102L19.0802 379.67L0.320176 487.11C-2.20982 501.6 10.4102 514.22 24.9102 511.67L132.36 492.83L429.28 195.9L316.08 82.7102ZM502.71 368.14L469.07 334.5L407.39 396.18C404.29 399.28 399.27 399.28 396.18 396.18L384.97 384.97C381.88 381.87 381.88 376.85 384.97 373.76L446.65 312.08L402.51 267.94L267.93 402.5L368.14 502.7C380.53 515.09 400.61 515.09 413 502.7L502.71 413C515.1 400.61 515.1 380.53 502.71 368.14Z" fill="black"/>
</g>
<defs>
<clipPath id="clip0_130_466">
<rect width="512" height="512" fill="white"/>
</clipPath>
</defs>
</svg>
