<svg width="512" height="512" viewBox="0 0 512 512" fill="none" xmlns="http://www.w3.org/2000/svg">
<g clip-path="url(#clip0_130_468)">
<path d="M500.3 443.7L380.6 324C407.82 283.59 421.25 233.1 414.06 179.3C401.8 87.7899 326.8 13.3199 235.2 1.7229C99.0101 -15.5101 -15.5099 99.0099 1.72406 235.2C13.3241 326.84 87.8041 401.9 179.324 414.1C233.124 421.289 283.624 407.864 324.024 380.64L443.724 500.34C459.344 515.96 484.674 515.96 500.294 500.34C515.9 484.7 515.9 459.3 500.3 443.7ZM79.1001 208C79.1001 137.42 136.52 79.9999 207.1 79.9999C277.68 79.9999 335.1 137.42 335.1 208C335.1 278.58 277.68 336 207.1 336C136.52 336 79.1001 278.6 79.1001 208Z" fill="black"/>
</g>
<defs>
<clipPath id="clip0_130_468">
<rect width="512" height="512" fill="white"/>
</clipPath>
</defs>
</svg>
