<svg width="512" height="512" viewBox="0 0 512 512" fill="none" xmlns="http://www.w3.org/2000/svg">
<path d="M52.6557 139.972C49.2389 132.815 48.1246 124.775 49.4661 116.959C50.8076 109.143 54.5391 101.935 60.1466 96.3278L96.323 60.124C101.93 54.5162 109.138 50.7846 116.953 49.443C124.769 48.1014 132.809 49.2158 139.965 52.6327L177.675 14.9717C187.264 5.38532 200.267 0 213.826 0C227.384 0 240.388 5.38532 249.976 14.9717L322.304 87.2768C327.054 92.0254 330.822 97.6635 333.393 103.869C335.964 110.074 337.287 116.725 337.287 123.442C337.287 130.159 335.964 136.81 333.393 143.016C330.822 149.221 327.054 154.859 322.304 159.608L159.574 322.32C154.826 327.07 149.188 330.839 142.983 333.41C136.778 335.981 130.127 337.304 123.41 337.304C116.694 337.304 110.043 335.981 103.838 333.41C97.633 330.839 91.9953 327.07 87.2469 322.32L14.9709 249.989C5.38505 240.4 0 227.396 0 213.836C0 200.277 5.38505 187.273 14.9709 177.684L52.6557 139.972V139.972ZM231.927 322.32L322.329 231.913L412.706 322.32L322.329 412.701L231.927 322.32ZM358.48 448.879L448.857 358.472L494.058 403.676C505.701 415.731 512.143 431.877 511.998 448.636C511.852 465.396 505.13 481.427 493.28 493.279C481.429 505.13 465.398 511.852 448.64 511.998C431.881 512.143 415.736 505.701 403.681 494.057L358.48 448.854V448.879Z" fill="black"/>
</svg>
