<svg width="1728" height="2323" viewBox="0 0 1728 2323" fill="none" xmlns="http://www.w3.org/2000/svg">
<path fill-rule="evenodd" clip-rule="evenodd" d="M1194.18 1042.07C1341.64 938.394 1438 766.95 1438 573C1438 256.541 1181.46 0 865 0C548.541 0 292 256.541 292 573C292 765.467 386.893 935.771 532.445 1039.68C581.136 1123.92 609 1221.71 609 1326C609 1642.46 352.459 1899 36 1899C23.9089 1899 11.9053 1898.63 0 1897.89V2323H1728V1897.89C1716.09 1898.63 1704.09 1899 1692 1899C1375.54 1899 1119 1642.46 1119 1326C1119 1222.69 1146.34 1125.77 1194.18 1042.07Z" fill="#1E59B0" fill-opacity="0.65"/>
</svg>
